<svg
  width="42"
  height="42"
  viewBox="0 0 42 42"
  fill="none"
  xmlns="http://www.w3.org/2000/svg"
>
  <path
    d="M21 28C22.8565 28 24.637 27.2625 25.9497 25.9497C27.2625 24.637 28 22.8565 28 21C28 19.1435 27.2625 17.363 25.9497 16.0503C24.637 14.7375 22.8565 14 21 14C19.1435 14 17.363 14.7375 16.0503 16.0503C14.7375 17.363 14 19.1435 14 21C14 22.8565 14.7375 24.637 16.0503 25.9497C17.363 27.2625 19.1435 28 21 28Z"
    stroke="currentColor"
    stroke-opacity="0.75"
    stroke-width="1.5"
    stroke-linecap="round"
    stroke-linejoin="round"
  />
  <path
    d="M5.25 28V14C5.25 11.6794 6.17187 9.45376 7.81282 7.81282C9.45376 6.17187 11.6794 5.25 14 5.25H28C30.3206 5.25 32.5462 6.17187 34.1872 7.81282C35.8281 9.45376 36.75 11.6794 36.75 14V28C36.75 30.3206 35.8281 32.5462 34.1872 34.1872C32.5462 35.8281 30.3206 36.75 28 36.75H14C11.6794 36.75 9.45376 35.8281 7.81282 34.1872C6.17187 32.5462 5.25 30.3206 5.25 28Z"
    stroke="currentColor"
    stroke-opacity="0.75"
    stroke-width="1.5"
  />
  <path
    d="M30.625 11.3916L30.6417 11.3732"
    stroke="currentColor"
    stroke-opacity="0.75"
    stroke-width="1.5"
    stroke-linecap="round"
    stroke-linejoin="round"
  />
</svg>
