<svg xmlns="http://www.w3.org/2000/svg" width="22" height="23" viewBox="0 0 22 23" fill="none">
  <g clip-path="url(#clip0_19_248)">
    <path d="M22 11.5293C22 14.4467 20.8411 17.2446 18.7782 19.3075C16.7153 21.3704 13.9174 22.5293 11 22.5293C8.08262 22.5293 5.28473 21.3704 3.22183 19.3075C1.15893 17.2446 0 14.4467 0 11.5293C0 8.61192 1.15893 5.81402 3.22183 3.75112C5.28473 1.68822 8.08262 0.529297 11 0.529297C13.9174 0.529297 16.7153 1.68822 18.7782 3.75112C20.8411 5.81402 22 8.61192 22 11.5293ZM11.3946 8.65005C10.3249 9.09555 8.18538 10.0168 4.97888 11.4138C4.45913 11.62 4.1855 11.8235 4.16075 12.0215C4.1195 12.3557 4.53888 12.4877 5.1095 12.6678L5.35012 12.7434C5.91113 12.9263 6.66737 13.1394 7.05925 13.1477C7.41675 13.1559 7.81412 13.0102 8.25275 12.7077C11.2489 10.685 12.7958 9.66342 12.892 9.64142C12.9608 9.62492 13.057 9.60567 13.1202 9.66342C13.1849 9.7198 13.178 9.82842 13.1711 9.8573C13.1299 10.0347 11.484 11.5637 10.6329 12.3557C10.3675 12.6032 10.1791 12.7778 10.1406 12.8177C10.0558 12.9043 9.96967 12.9896 9.88212 13.0734C9.35962 13.5767 8.96912 13.9534 9.90275 14.5694C10.3524 14.8664 10.7126 15.1098 11.0715 15.3545C11.462 15.6213 11.8525 15.8867 12.3585 16.2194C12.4864 16.3019 12.6101 16.3913 12.7298 16.4765C13.1849 16.801 13.596 17.0925 14.1006 17.0458C14.3949 17.0183 14.6988 16.7433 14.8527 15.9183C15.2171 13.9699 15.9335 9.75005 16.0985 8.01067C16.1086 7.86608 16.1026 7.72082 16.0806 7.57755C16.0677 7.46194 16.0117 7.35543 15.9239 7.27917C15.7988 7.19281 15.6496 7.14806 15.4976 7.1513C15.0851 7.15817 14.4485 7.37955 11.3946 8.65005Z" fill="white" fill-opacity="0.75"/>
  </g>
  <defs>
    <clipPath id="clip0_19_248">
      <rect width="22" height="22" fill="white" transform="translate(0 0.529297)"/>
    </clipPath>
  </defs>
</svg>