<svg
  width="42"
  height="42"
  viewBox="0 0 42 42"
  fill="none"
  xmlns="http://www.w3.org/2000/svg"
>
  <g id="TikTiok">
    <g id="Group">
      <path
        id="Vector"
        d="M36.75 14V28C36.75 30.3206 35.8281 32.5462 34.1872 34.1872C32.5462 35.8281 30.3206 36.75 28 36.75H14C11.6794 36.75 9.45376 35.8281 7.81282 34.1872C6.17187 32.5462 5.25 30.3206 5.25 28V14C5.25 11.6794 6.17187 9.45376 7.81282 7.81282C9.45376 6.17187 11.6794 5.25 14 5.25H28C30.3206 5.25 32.5462 6.17187 34.1872 7.81282C35.8281 9.45376 36.75 11.6794 36.75 14Z"
        stroke="currentColor"
        stroke-opacity="0.75"
        stroke-width="1.5"
        stroke-linecap="round"
        stroke-linejoin="round"
      />
      <path
        id="Vector_2"
        d="M17.5 21C16.4616 21 15.4466 21.3079 14.5833 21.8848C13.7199 22.4617 13.047 23.2816 12.6496 24.2409C12.2523 25.2002 12.1483 26.2558 12.3509 27.2742C12.5535 28.2926 13.0535 29.2281 13.7877 29.9623C14.5219 30.6965 15.4574 31.1966 16.4758 31.3991C17.4942 31.6017 18.5498 31.4977 19.5091 31.1004C20.4684 30.703 21.2883 30.0301 21.8652 29.1667C22.4421 28.3034 22.75 27.2884 22.75 26.25V10.5C23.3327 12.25 25.55 15.75 29.75 15.75"
        stroke="currentColor"
        stroke-opacity="0.75"
        stroke-width="1.5"
        stroke-linecap="round"
        stroke-linejoin="round"
      />
    </g>
  </g>
</svg>
