<svg
  width="42"
  height="42"
  viewBox="0 0 42 42"
  fill="none"
  xmlns="http://www.w3.org/2000/svg"
>
  <path
    d="M40.25 5.26751C40.25 5.26751 36.7185 7.35351 34.755 7.94501C33.701 6.73315 32.3003 5.87422 30.7423 5.48438C29.1843 5.09454 27.5441 5.1926 26.0436 5.7653C24.5432 6.338 23.2548 7.35771 22.3527 8.68651C21.4507 10.0153 20.9785 11.5891 21 13.195V14.945C17.9246 15.0248 14.8772 14.3427 12.1293 12.9595C9.3813 11.5764 7.01805 9.53512 5.25 7.01751C5.25 7.01751 -1.75 22.7675 14 29.7675C10.3959 32.2139 6.10252 33.4406 1.75 33.2675C17.5 42.0175 36.75 33.2675 36.75 13.1425C36.75 12.656 36.701 12.1695 36.61 11.69C38.395 9.92951 40.25 5.26751 40.25 5.26751Z"
    stroke="currentColor"
    stroke-opacity="0.75"
    stroke-width="1.5"
    stroke-linecap="round"
    stroke-linejoin="round"
  />
</svg>
